# xmcd CD database file
#
# Track frame offsets:
#	150
#	16350
#	34723
#	63783
#	77277
#	95699
#	112351
#	133078
#	149221
#	160161
#	179434
#	199903
#	215848
#	230056
#
# Disc length: 3288 seconds
#
# Revision: 2
# Processed by: cddbd v1.4PL0 Copyright (c) Steve Scherf et al.
# Submitted via: CDex 1.40Release
#
DISCID=d30cd60e
DTITLE=Go Blue - Richard Bargel and Klaus Mages - Go Blue
DYEAR=1999
DGENRE=Blues
TTITLE0=Hey, Little Girl
TTITLE1=You Ask For It, Mama
TTITLE2=Goin`Down To The River
TTITLE3=Sittin` on My Front Porch
TTITLE4=Hell Is For Cheap
TTITLE5=Dont´t Remember A Damn´Thing
TTITLE6=Let Me Be Your Jockey
TTITLE7=Fat´n Lean
TTITLE8=Swamp Stomp
TTITLE9=When The Days Are Gone
TTITLE10=It´s Talk Time, Mama
TTITLE11=Bit Fat Funky
TTITLE12=Big City, Killin´Floor
TTITLE13=Yellow Moon
EXTD=YEAR: 1999 ID3G: 0
EXTT0=
EXTT1=
EXTT2=
EXTT3=
EXTT4=
EXTT5=
EXTT6=
EXTT7=
EXTT8=
EXTT9=
EXTT10=
EXTT11=
EXTT12=
EXTT13=
PLAYORDER=
